<svg xmlns="http://www.w3.org/2000/svg" fill="currentColor" viewBox="0 0 24 24" aria-hidden="true">
  <path d="M19.467 8.694l.246-.566a4.363 4.363 0 012.22-2.25l.759-.339a.53.53 0 000-.963l-.717-.319a4.366 4.366 0 01-2.251-2.326l-.253-.611a.506.506 0 00-.942 0l-.253.61a4.366 4.366 0 01-2.25 2.327l-.718.32a.53.53 0 000 .962l.76.338a4.363 4.363 0 012.219 2.251l.246.566c.18.414.753.414.934 0zm-6.08-2.355c.274.434.649.754 1.124.961l.565.247c.57.248.978.648 1.223 1.198l.338.76c.727 1.637 2.891 1.894 4.072.774l.091.121a1 1 0 01-.057 1.269l-9 10a1 1 0 01-1.486 0l-9-10A1 1 0 011.2 10.4l3-4A1 1 0 015 6h8.206c.051.116.111.229.18.339z"/>
</svg>
