<svg xmlns="http://www.w3.org/2000/svg" fill="currentColor" viewBox="0 0 24 24" aria-hidden="true">
  <path d="M14.475 1.768a3.5 3.5 0 00-4.95 0L5.4 5.894a3.99 3.99 0 013.079 1.164l2.992 2.993a.75.75 0 001.061 0l2.992-2.993a3.99 3.99 0 013.08-1.163l-4.128-4.127zm5.979 5.978l1.779 1.78a3.5 3.5 0 01.015 4.933l-1.774 1.774a3 3 0 01-4.243 0l-2.993-2.993a1.75 1.75 0 00-2.475 0L7.77 16.234a3 3 0 01-4.243 0l-1.78-1.78a3.5 3.5 0 01.021-4.929l1.775-1.774a3 3 0 014.228.014l2.992 2.993a1.75 1.75 0 002.475 0l2.993-2.993a3 3 0 014.223-.019zM5.398 18.105a3.99 3.99 0 003.079-1.164l2.993-2.994a.75.75 0 011.061 0l2.993 2.994a3.99 3.99 0 003.08 1.163l-4.129 4.128a3.5 3.5 0 01-4.95 0l-4.127-4.127z"/>
</svg>
