<svg xmlns="http://www.w3.org/2000/svg" xmlns:xlink="http://www.w3.org/1999/xlink" height="64" viewBox="0 0 64 64" width="64">
  <linearGradient id="a" x1="50%" x2="50%" y1="0%" y2="100%">
    <stop offset="0" stop-color="#08b1fa"/>
    <stop offset="1" stop-color="#4f8eff"/>
  </linearGradient>
  <linearGradient id="b" x1="50%" x2="50%" y1="0%" y2="100%">
    <stop offset="0" stop-color="#0090ff"/>
    <stop offset="1" stop-color="#0059ff"/>
  </linearGradient>
  <linearGradient id="c" x1="50%" x2="50%" y1="0%" y2="100%">
    <stop offset="0" stop-color="#ff3a50"/>
    <stop offset="1" stop-color="#ed306b"/>
  </linearGradient>
  <g fill="none" fill-rule="evenodd">
    <path d="m0 0h320v64h-320z"/>
    <g transform="translate(1 1)">
      <path d="m32.665 4.01a15.324 15.324 0 0 0 -.665 4.51c0 7.212 6.268 13.48 14.519 13.48 2.127 0 4.172-.545 5.998-1.499.316 1.45.483 2.955.483 4.499 0 11.598-9.402 21-21 21v10h-32v-52h32c.222 0 .444.003.665.01z" fill="url(#a)"/>
      <path d="m0 4 52 52h-52z" fill="url(#b)"/>
      <circle cx="46" cy="8" fill="url(#c)" r="8"/>
    </g>
  </g>
</svg>