<svg xmlns="http://www.w3.org/2000/svg" fill="currentColor" viewBox="0 0 24 24" aria-hidden="true">
  <path d="M4 12a8 8 0 1116 0 8 8 0 01-16 0zm8-10C6.477 2 2 6.477 2 12s4.477 10 10 10 10-4.477 10-10S17.523 2 12 2zm0 6.5a1.5 1.5 0 100-3 1.5 1.5 0 000 3zm0 1c-1.557 0-3.178-.357-4.629-.929l-.742 1.857c1.076.43 2.228.719 3.37.902 0 .87.086 1.764-.316 2.567l-1.578 3.156 1.79.894 1.552-3.105a.618.618 0 011.106 0l1.552 3.105 1.79-.894-1.578-3.156C13.915 13.094 14 12.2 14 11.33a16.45 16.45 0 003.359-.897c.025-.01-.73-1.862-.733-1.86-1.453.566-3.067.927-4.626.927z"/>
</svg>
