<svg xmlns="http://www.w3.org/2000/svg" fill="currentColor" viewBox="0 0 24 24" aria-hidden="true">
  <path d="M15.5.287c-.69.286-1.359.616-2 .987C8.419 4.215 5 9.708 5 16H4v4H3v2h17v-2h-1v-4h-1.192a5.413 5.413 0 00-.76-1.85c-.566-.858-1.421-1.562-2.658-2.131-.13-.06-.263-.117-.396-.172a.174.174 0 01-.059-.282c.055-.055.122-.053.192-.04l1.753.351 2.413.483a1 1 0 001.065-.485l1.295-2.266a1 1 0 00-.105-1.142L15.5 2.5V.287zM17 20H6v-2h11v2zM7 16c0-5.22 2.668-9.822 6.719-12.509l4.85 5.732-.59 1.033-3.497-.7a2.17 2.17 0 00-1.96.594c-1.133 1.133-.676 2.977.713 3.547 1.246.513 1.859 1.082 2.2 1.642.118.193.22.41.303.661H7zm7-8a1 1 0 100-2 1 1 0 000 2z"/>
</svg>
