<svg xmlns="http://www.w3.org/2000/svg" fill="currentColor" viewBox="0 0 24 24" aria-hidden="true">
  <path d="M9 2.9c0-.463.319-.865.769-.973 1.396-.33 3.065-.326 4.462 0 .446.106.77.515.77.973v2.138a.75.75 0 00.431.679l5.694 2.668a1.5 1.5 0 01.728 1.982l-4.473 9.785A1.452 1.452 0 0116.06 21H7.94a1.452 1.452 0 01-1.32-.848l-4.474-9.785a1.5 1.5 0 01.728-1.982l5.694-2.668A.75.75 0 009 5.037V2.9zm2 .88v1.258a2.75 2.75 0 01-1.583 2.49l-.98.46C9.141 9.888 10.57 11 12 11c1.43 0 2.859-1.11 3.565-3.013l-.981-.46A2.75 2.75 0 0113 5.038V3.78c-.263-.019-.596-.033-1-.033-.403 0-.736.014-1 .033zm.32 9.174c-2.153-.296-3.845-1.976-4.697-4.117L4.172 9.985 8.292 19h7.416l4.121-9.015-2.451-1.148c-.852 2.142-2.544 3.82-4.697 4.117l1.508 2.11a.75.75 0 010 .872l-1.985 2.78a.25.25 0 01-.407 0l-1.985-2.78a.75.75 0 010-.872l1.507-2.11z"/>
</svg>
