<svg xmlns="http://www.w3.org/2000/svg" fill="currentColor" viewBox="0 0 24 24" aria-hidden="true">
  <path d="M14.473 1.745l7.778 7.778a3.5 3.5 0 010 4.95l-7.778 7.778a3.5 3.5 0 01-4.95 0l-7.778-7.778a3.5 3.5 0 010-4.95l7.778-7.778a3.5 3.5 0 014.95 0zm-2.475 13.082l-2.475 2.475c-.38.38-.825.653-1.299.822l2.713 2.713a1.5 1.5 0 002.122 0l2.713-2.713a3.487 3.487 0 01-1.3-.822l-2.474-2.475zm-6.01-6.719l-2.829 2.83a1.5 1.5 0 000 2.12l2.829 2.83a1.5 1.5 0 002.12 0l2.476-2.476a2 2 0 012.828 0l2.475 2.475a1.5 1.5 0 002.121 0l2.829-2.828a1.5 1.5 0 000-2.121l-2.829-2.829a1.501 1.501 0 00-2.121 0l-2.475 2.475a2 2 0 01-2.828 0L8.109 8.109a1.5 1.5 0 00-2.12 0zm4.95-4.949L8.223 5.872c.474.17.92.443 1.299.823l2.475 2.475 2.475-2.475c.38-.38.824-.654 1.299-.823L13.059 3.16a1.5 1.5 0 00-2.122 0z"/>
</svg>
